<svg width="48" height="48" viewBox="0 0 48 48" fill="none" xmlns="http://www.w3.org/2000/svg">
<path d="M43.1502 22.2819C42.5747 22.2861 42.0047 22.3959 41.4674 22.6061L35.7271 17.8214C35.8684 17.2998 35.9689 16.7587 35.9689 16.1883C35.9689 12.81 33.3022 10.0947 29.9844 10.0947C26.6667 10.0947 24 12.81 24 16.1883C24 17.1536 24.2394 18.053 24.6272 18.8622L17.6636 27.2421C17.3849 27.189 17.1022 27.1605 16.8186 27.1568C16.3901 27.1568 15.9856 27.23 15.593 27.3372L9.45775 21.09C9.56547 20.6927 9.63729 20.2808 9.63729 19.8445C9.63729 17.1438 7.50203 14.9696 4.84972 14.9696C2.19741 14.9696 0.0621567 17.1438 0.0621567 19.8445C0.0621567 22.5452 2.19741 24.7194 4.84972 24.7194C5.27821 24.7194 5.68276 24.6463 6.07534 24.539L12.2106 30.7862C12.0955 31.1911 12.0351 31.6102 12.0311 32.0317C12.0311 34.7324 14.1663 36.9066 16.8186 36.9066C19.4709 36.9066 21.6062 34.7324 21.6062 32.0317C21.6062 31.454 21.4913 30.9105 21.3118 30.3962L28.2849 22.0065C28.8282 22.1674 29.3908 22.2819 29.9844 22.2819C30.9291 22.2766 31.8589 22.0418 32.6966 21.597L38.4393 26.3817C38.3942 26.6377 38.3686 26.8968 38.3627 27.1568C38.3627 29.8575 40.4979 32.0317 43.1502 32.0317C45.8026 32.0317 47.9378 29.8575 47.9378 27.1568C47.9378 24.4561 45.8026 22.2819 43.1502 22.2819Z" fill="#0D5C63"/>
</svg>
