<svg width="48" height="48" viewBox="0 0 48 48" fill="none" xmlns="http://www.w3.org/2000/svg">
<g clip-path="url(#clip0_964_6310)">
<path d="M23.8406 22.8025C28.1448 22.8025 31.4925 19.3071 31.4925 15.0173C31.4925 10.7276 27.9854 7.39111 23.6812 7.39111C19.377 7.39111 16.0293 10.8865 16.0293 15.0173C16.0293 19.3071 19.5364 22.8025 23.8406 22.8025ZM23.6812 10.5687C23.8406 10.5687 23.8406 10.5687 23.6812 10.5687C26.2318 10.5687 28.3042 12.6342 28.3042 15.1762C28.3042 17.7183 26.2318 19.6249 23.6812 19.6249C21.1305 19.6249 19.2176 17.5594 19.2176 15.1762C19.2176 12.6342 21.29 10.5687 23.6812 10.5687Z" fill="#0D5C63"/>
<path d="M47.4339 21.8487C44.4051 19.1477 40.4197 17.7178 36.2749 17.8767H34.9996C34.6808 19.1477 34.2025 20.2599 33.5649 21.2132C34.5214 21.0543 35.3184 21.0543 36.2749 21.0543C39.3038 20.8954 42.3327 21.8487 44.7239 23.5964V35.0357H47.9122V22.3253L47.4339 21.8487Z" fill="#0D5C63"/>
<path d="M32.6084 7.70826C33.4054 5.8017 35.6373 4.84842 37.7096 5.64282C39.6226 6.43722 40.5791 8.66154 39.782 10.727C39.1444 12.1569 37.7096 13.1102 36.2749 13.1102C35.9561 13.1102 35.4778 13.1102 35.159 12.9513C35.3184 13.7457 35.3184 14.5401 35.3184 15.1756V16.1289C35.6373 16.1289 35.9561 16.2878 36.2749 16.2878C40.2603 16.2878 43.4486 13.1102 43.4486 9.29706C43.4486 5.32506 40.2603 2.14746 36.4343 2.14746C33.8837 2.14746 31.6519 3.4185 30.3766 5.64282C31.1736 6.11946 31.9707 6.75498 32.6084 7.70826Z" fill="#0D5C63"/>
<path d="M14.4352 21.3724C13.7975 20.4191 13.3193 19.3069 13.0004 18.0359H11.7251C7.58033 17.877 3.59496 19.3069 0.566088 21.849L0.0878448 22.3257V35.0361H3.27614V23.5967C5.82677 21.849 8.69623 20.8957 11.7251 21.0546C12.6816 21.0546 13.6381 21.2135 14.4352 21.3724Z" fill="#0D5C63"/>
<path d="M11.7251 16.1295C12.0439 16.1295 12.3628 16.1295 12.6816 15.9706V15.0174C12.6816 14.223 12.6816 13.4286 12.841 12.793C12.5222 12.9519 12.0439 12.9519 11.7251 12.9519C9.65272 12.9519 7.89916 11.2042 7.89916 9.1388C7.89916 7.07336 9.65272 5.32568 11.7251 5.32568C13.3193 5.32568 14.754 6.27896 15.3916 7.70888C16.0293 6.91448 16.9858 6.12008 17.7829 5.48456C15.7105 2.14809 11.4063 1.03593 8.05857 3.10136C4.71087 5.1668 3.59497 9.45656 5.66736 12.793C6.94267 14.8585 9.17447 16.1295 11.7251 16.1295Z" fill="#0D5C63"/>
<path d="M36.9126 31.3817L36.5938 30.9051C33.4055 27.4097 28.9419 25.3443 24.1594 25.5032C19.377 25.3443 14.754 27.4097 11.5657 30.9051L11.2469 31.3817V43.4566C11.2469 44.8865 12.3628 46.1576 13.9569 46.1576H34.362C35.7967 46.1576 37.072 44.8865 37.072 43.4566V31.3817H36.9126ZM33.7243 42.98H14.4351V32.4939C16.9858 29.9518 20.4929 28.6808 24.1594 28.6808C27.6666 28.5219 31.1737 29.9518 33.7243 32.4939V42.98Z" fill="#0D5C63"/>
</g>
<defs>
<clipPath id="clip0_964_6310">
<rect width="48" height="44.2105" fill="white" transform="translate(0 2)"/>
</clipPath>
</defs>
</svg>
