<svg width="48" height="48" viewBox="0 0 48 48" fill="none" xmlns="http://www.w3.org/2000/svg">
<g clip-path="url(#clip0_964_6300)">
<path d="M29.1419 13.624H41.1398V17.0693H29.1419V13.624Z" fill="#0D5C63"/>
<path d="M29.1419 22.2373H41.1398V25.6826H29.1419V22.2373Z" fill="#0D5C63"/>
<path d="M29.1419 30.8506H41.1398V34.2959H29.1419V30.8506Z" fill="#0D5C63"/>
<path d="M44.5679 5.01123H3.43235C2.52348 5.01214 1.65209 5.37542 1.00942 6.02135C0.366752 6.66727 0.00530204 7.54307 0.00439453 8.45655V39.4644C0.00530204 40.3779 0.366752 41.2537 1.00942 41.8996C1.65209 42.5455 2.52348 42.9088 3.43235 42.9097H44.5679C45.4766 42.9084 46.3477 42.5449 46.9903 41.8991C47.6329 41.2533 47.9945 40.3777 47.9958 39.4644V8.45655C47.9949 7.54307 47.6335 6.66727 46.9908 6.02135C46.3481 5.37542 45.4767 5.01214 44.5679 5.01123ZM3.43235 8.45655H22.2861V39.4644H3.43235V8.45655ZM25.7141 39.4644V8.45655H44.5679L44.5713 39.4644H25.7141Z" fill="#0D5C63"/>
</g>
<defs>
<clipPath id="clip0_964_6300">
<rect width="48" height="37.92" fill="white" transform="translate(0 5)"/>
</clipPath>
</defs>
</svg>
