<svg width="48" height="48" viewBox="0 0 48 48" fill="none" xmlns="http://www.w3.org/2000/svg">
<g clip-path="url(#clip0_964_6328)">
<path d="M15.0641 33.9949C14.2531 33.1802 14.6759 33.4099 12.7196 32.8839C11.832 32.6449 11.0517 32.1855 10.3461 31.6352L6.1116 42.0639C5.70187 43.0736 6.4672 44.1705 7.55174 44.1292L12.4695 43.9408L15.8519 47.5296C16.5985 48.3208 17.9089 48.0742 18.3187 47.0646L23.1767 35.1002C22.1649 35.6664 21.0421 35.9983 19.8811 35.9983C18.0611 35.9983 16.3512 35.2867 15.0641 33.9949ZM41.7276 42.0639L37.4931 31.6352C36.7875 32.1864 36.0072 32.6449 35.1196 32.8839C33.1531 33.4127 33.5843 33.1821 32.7751 33.9949C31.488 35.2867 29.7772 35.9983 27.9572 35.9983C26.7961 35.9983 25.6733 35.6655 24.6616 35.1002L29.5196 47.0646C29.9293 48.0742 31.2407 48.3208 31.9864 47.5296L35.3697 43.9408L40.2875 44.1292C41.372 44.1705 42.1373 43.0727 41.7276 42.0639ZM30.5463 31.8733C31.9724 30.4155 32.1357 30.5411 34.1667 29.9852C35.4631 29.6299 36.4767 28.5939 36.8239 27.2683C37.522 24.6058 37.3409 24.9274 39.2459 22.9792C40.1951 22.0089 40.5656 20.5942 40.2184 19.2686C39.5212 16.608 39.5203 16.9792 40.2184 14.3158C40.5656 12.9902 40.1951 11.5755 39.2459 10.6052C37.3409 8.65706 37.522 8.97769 36.8239 6.31613C36.4767 4.9905 35.4631 3.95456 34.1667 3.59925C31.5645 2.88581 31.8781 3.07238 29.9713 1.12331C29.0221 0.153002 27.638 -0.226685 26.3416 0.128627C23.7404 0.841127 24.1035 0.842064 21.4976 0.128627C20.2012 -0.226685 18.8171 0.152065 17.8679 1.12331C15.9629 3.07144 16.2765 2.88581 13.6735 3.59925C12.3771 3.95456 11.3635 4.9905 11.0163 6.31613C10.3191 8.97769 10.4992 8.65706 8.59427 10.6052C7.64507 11.5755 7.2736 12.9902 7.62174 14.3158C8.31894 16.9746 8.31987 16.6033 7.62174 19.2677C7.27454 20.5933 7.64507 22.008 8.59427 22.9792C10.4992 24.9274 10.3181 24.6058 11.0163 27.2683C11.3635 28.5939 12.3771 29.6299 13.6735 29.9852C15.7623 30.5571 15.9181 30.4671 17.2929 31.8733C18.5277 33.1361 20.4513 33.3621 21.9353 32.4189C22.5288 32.0405 23.2172 31.8396 23.9201 31.8396C24.623 31.8396 25.3114 32.0405 25.9048 32.4189C27.3879 33.3621 29.3115 33.1361 30.5463 31.8733ZM15.1145 16.4946C15.1145 11.523 19.0569 7.49269 23.9196 7.49269C28.7823 7.49269 32.7247 11.523 32.7247 16.4946C32.7247 21.4661 28.7823 25.4964 23.9196 25.4964C19.0569 25.4964 15.1145 21.4661 15.1145 16.4946Z" fill="#0D5C63"/>
</g>
<defs>
<clipPath id="clip0_964_6328">
<rect width="35.84" height="48" fill="white" transform="translate(6)"/>
</clipPath>
</defs>
</svg>
