<svg width="48" height="48" viewBox="0 0 48 48" fill="none" xmlns="http://www.w3.org/2000/svg">
<g clip-path="url(#clip0_964_6282)">
<path d="M42.5886 12.5255H37.519V7.45592C37.519 6.55955 37.1629 5.6999 36.5291 5.06608C35.8952 4.43225 35.0356 4.07617 34.1392 4.07617H13.8608C12.9644 4.07617 12.1047 4.43225 11.4709 5.06608C10.8371 5.6999 10.481 6.55955 10.481 7.45592V12.5255H5.41139C4.06684 12.5255 2.77736 13.0597 1.82662 14.0104C0.875886 14.9611 0.341766 16.2506 0.341766 17.5952V41.2534C0.341766 42.1497 0.697846 43.0094 1.33167 43.6432C1.9655 44.2771 2.82515 44.6331 3.72151 44.6331H44.2785C45.1748 44.6331 46.0345 44.2771 46.6683 43.6432C47.3021 43.0094 47.6582 42.1497 47.6582 41.2534V17.5952C47.6582 16.2506 47.1241 14.9611 46.1734 14.0104C45.2226 13.0597 43.9331 12.5255 42.5886 12.5255ZM13.8608 7.45592H34.1392V12.5255H13.8608V7.45592ZM44.2785 41.2534H3.72151V26.0445H17.2405V34.4939H30.7595V26.0445H44.2785V41.2534ZM20.6202 26.0445H27.3797V31.1141H20.6202V26.0445ZM3.72151 22.6648V17.5952C3.72151 17.147 3.89955 16.7172 4.21647 16.4002C4.53338 16.0833 4.9632 15.9053 5.41139 15.9053H42.5886C43.0368 15.9053 43.4666 16.0833 43.7835 16.4002C44.1004 16.7172 44.2785 17.147 44.2785 17.5952V22.6648H3.72151Z" fill="#0D5C63"/>
</g>
<defs>
<clipPath id="clip0_964_6282">
<rect width="48" height="40.7089" fill="white" transform="translate(0 4)"/>
</clipPath>
</defs>
</svg>
